<svg width="99" height="19" viewBox="0 0 99 19" fill="none" xmlns="http://www.w3.org/2000/svg">
<path d="M7.26617 16.6979C8.01272 16.6979 8.65974 16.59 9.20721 16.3744C9.75468 16.1587 10.1777 15.8269 10.4763 15.379C10.775 14.9144 10.9243 14.3255 10.9243 13.6121C10.9243 12.9651 10.7916 12.4259 10.5261 11.9946C10.2607 11.5632 9.90399 11.2148 9.45606 10.9494C9.00813 10.6674 8.49383 10.4351 7.91318 10.2526C7.34912 10.0535 6.75188 9.87105 6.12145 9.70515C5.45785 9.52266 4.80254 9.31528 4.15553 9.08302C3.50852 8.85076 2.91957 8.54384 2.38868 8.16227C1.8578 7.7807 1.43476 7.29959 1.11954 6.71893C0.804332 6.13828 0.646726 5.40832 0.646726 4.52904C0.646726 3.6 0.878987 2.80367 1.34351 2.14007C1.82462 1.45988 2.45505 0.93729 3.23478 0.572308C4.0311 0.190736 4.90208 -4.96927e-05 5.84772 -4.96927e-05C6.59427 -4.96927e-05 7.29935 0.107786 7.96295 0.323457C8.64314 0.539128 9.25698 0.912405 9.80445 1.44329C10.3685 1.97417 10.8496 2.72902 11.2478 3.70783L10.3519 3.80737L10.7003 0.248801H12.1188V4.87743H10.551C10.2856 4.16406 9.92888 3.55023 9.48094 3.03593C9.0496 2.52164 8.5436 2.13178 7.96295 1.86633C7.3823 1.5843 6.75188 1.44329 6.07168 1.44329C5.3749 1.44329 4.77766 1.55942 4.27995 1.79168C3.78225 2.02394 3.39238 2.35574 3.11035 2.78708C2.84491 3.20184 2.71219 3.70783 2.71219 4.30508C2.71219 4.88573 2.84491 5.36684 3.11035 5.74841C3.37579 6.11339 3.73248 6.42031 4.18041 6.66916C4.62835 6.91801 5.14264 7.13368 5.72329 7.31618C6.30394 7.48208 6.90119 7.64798 7.51502 7.81388C8.2118 7.99637 8.892 8.21204 9.5556 8.46089C10.2192 8.69315 10.8164 9.00007 11.3473 9.38164C11.8948 9.76321 12.3261 10.2526 12.6414 10.8499C12.9566 11.4471 13.1142 12.1937 13.1142 13.0895C13.1142 14.1679 12.8487 15.0886 12.3178 15.8518C11.8036 16.6149 11.1068 17.1956 10.2275 17.5937C9.36481 17.9753 8.41088 18.1661 7.36571 18.1661C6.42007 18.1661 5.50762 18.0168 4.62835 17.7182C3.76566 17.4029 2.99422 16.9135 2.31403 16.2499C1.65043 15.5863 1.12784 14.7071 0.746267 13.6121L1.8661 13.7365L1.51771 17.9172H-0.000286811V12.4176H1.56748C1.84951 13.2637 2.26426 14.0103 2.81173 14.6573C3.3592 15.3043 4.01451 15.8103 4.77766 16.1753C5.5408 16.5237 6.3703 16.6979 7.26617 16.6979ZM28.7935 12.5172V17.9172H15.48V16.7725H15.7289C16.3427 16.7725 16.8487 16.7145 17.2468 16.5983C17.645 16.4822 17.8441 16.2416 17.8441 15.8767V2.28938C17.8441 1.9244 17.645 1.68384 17.2468 1.56771C16.8487 1.45158 16.3427 1.39352 15.7289 1.39352H15.48V0.248801H28.0719V5.02674H26.7032L26.4543 2.78708C26.4212 2.47187 26.2967 2.23961 26.0811 2.0903C25.8654 1.9244 25.5336 1.81656 25.0857 1.76679C24.6377 1.71702 24.0571 1.69214 23.3437 1.69214H20.1335V16.4739H24.0654C24.5963 16.4739 25.0525 16.4656 25.4341 16.449C25.8322 16.4158 26.1557 16.3578 26.4046 16.2748C26.6534 16.1919 26.8359 16.0757 26.952 15.9264C27.0848 15.7771 27.1594 15.5946 27.176 15.379L27.4 12.5172H28.7935ZM19.4119 8.21204C20.1252 8.19545 20.822 8.17886 21.5022 8.16227C22.199 8.12909 22.8875 8.1042 23.5677 8.08761C24.2479 8.05443 24.9281 8.02955 25.6083 8.01296V9.75492C24.9281 9.72174 24.2479 9.69685 23.5677 9.68026C22.8875 9.64708 22.199 9.6222 21.5022 9.60561C20.822 9.57243 20.1252 9.54754 19.4119 9.53095V8.21204ZM39.1619 9.92911L41.3767 9.55584L45.0348 16.0757C45.1509 16.2748 45.2836 16.4241 45.4329 16.5237C45.5988 16.6232 45.7896 16.6896 46.0053 16.7228C46.2376 16.7559 46.4947 16.7725 46.7767 16.7725H46.9758V17.9172H43.3426L39.1619 9.92911ZM36.0513 16.5237C36.0513 16.5734 36.1093 16.6149 36.2254 16.6481C36.3416 16.6647 36.4909 16.6896 36.6734 16.7228C36.8725 16.7393 37.0798 16.7559 37.2955 16.7725C37.5278 16.7725 37.7517 16.7725 37.9674 16.7725H38.2909V17.9172H31.3977V16.7725H31.6466C32.2604 16.7725 32.7664 16.7145 33.1646 16.5983C33.5627 16.4822 33.7618 16.2416 33.7618 15.8767V2.28938C33.7618 1.9244 33.5627 1.68384 33.1646 1.56771C32.7664 1.45158 32.2604 1.39352 31.6466 1.39352H31.3977V0.248801H38.5398C39.8836 0.248801 41.0283 0.464472 41.9739 0.895815C42.9361 1.31057 43.6744 1.89951 44.1887 2.66266C44.703 3.4258 44.9601 4.31337 44.9601 5.32537C44.9601 6.13828 44.7859 6.86824 44.4375 7.51526C44.1057 8.16227 43.6163 8.71804 42.9693 9.18256C42.3389 9.63049 41.5757 9.96229 40.6799 10.178C40.4476 10.2111 40.2071 10.2443 39.9582 10.2775C39.7094 10.3107 39.4522 10.3439 39.1868 10.377C38.9379 10.3936 38.6725 10.4019 38.3905 10.4019H35.5535V9.03325H38.3905C39.3527 9.03325 40.1324 8.88394 40.7297 8.58532C41.3269 8.2867 41.7665 7.86365 42.0486 7.31618C42.3472 6.75211 42.4965 6.08851 42.4965 5.32537C42.4965 4.57881 42.3472 3.9318 42.0486 3.38433C41.7499 2.83685 41.302 2.4221 40.7048 2.14007C40.1241 1.84145 39.3859 1.69214 38.49 1.69214H36.0513V16.5237ZM56.5494 16.9716L56.1512 16.2499L61.0785 1.86633C61.0785 1.76679 60.9707 1.68384 60.755 1.61748C60.5559 1.53453 60.2905 1.47647 59.9587 1.44329C59.6434 1.41011 59.3282 1.39352 59.013 1.39352H58.6397V0.248801H64.3384V1.39352H64.214C63.7495 1.39352 63.3845 1.45988 63.1191 1.5926C62.8536 1.72532 62.638 2.02394 62.4721 2.48846L57.1466 17.9172H54.6332L49.1087 2.11518C48.9926 1.76679 48.8018 1.55942 48.5364 1.49306C48.2709 1.4267 47.9226 1.39352 47.4912 1.39352H47.3668V0.248801H53.812V1.39352H53.389C53.0738 1.39352 52.7503 1.40181 52.4185 1.4184C52.1033 1.43499 51.8295 1.45988 51.5973 1.49306C51.3816 1.52624 51.2738 1.57601 51.2738 1.64237L56.5494 16.9716ZM70.292 11.1983C70.292 12.1937 70.4081 13.0315 70.6404 13.7117C70.8727 14.3918 71.1962 14.931 71.6109 15.3292C72.0257 15.7273 72.5151 16.0177 73.0791 16.2002C73.6432 16.3827 74.2736 16.4739 74.9704 16.4739C75.634 16.4739 76.2396 16.3827 76.787 16.2002C77.3511 16.0177 77.8405 15.7273 78.2552 15.3292C78.67 14.931 78.9852 14.3918 79.2009 13.7117C79.4331 13.0315 79.5493 12.1937 79.5493 11.1983V1.94099C79.5493 1.85804 79.4829 1.78338 79.3502 1.71702C79.2175 1.65066 79.0433 1.5926 78.8276 1.54283C78.6119 1.49306 78.3714 1.45988 78.1059 1.44329C77.8571 1.41011 77.6165 1.39352 77.3843 1.39352H77.1603V0.248801H83.506V1.39352H83.2323C82.8507 1.39352 82.494 1.43499 82.1622 1.51794C81.847 1.5843 81.5982 1.70873 81.4157 1.89122C81.2332 2.05712 81.1419 2.28109 81.1419 2.56312V11.1983C81.1419 12.4425 80.976 13.5043 80.6442 14.3835C80.3124 15.2628 79.8479 15.9845 79.2507 16.5486C78.6534 17.1126 77.9649 17.5274 77.1852 17.7928C76.4055 18.0417 75.5677 18.1661 74.6718 18.1661C73.7096 18.1661 72.822 18.0334 72.0091 17.7679C71.1962 17.5025 70.4828 17.096 69.869 16.5486C69.2717 15.9845 68.8072 15.2628 68.4754 14.3835C68.1436 13.5043 67.9777 12.4425 67.9777 11.1983V2.28938C67.9777 1.9244 67.7786 1.68384 67.3805 1.56771C66.9823 1.45158 66.4763 1.39352 65.8625 1.39352H65.6136V0.248801H72.681V1.39352H72.457C72.2248 1.39352 71.9759 1.40181 71.7105 1.4184C71.4616 1.4184 71.2294 1.43499 71.0137 1.46817C70.798 1.48476 70.6238 1.50965 70.4911 1.54283C70.3584 1.55942 70.292 1.5926 70.292 1.64237V11.1983ZM92.59 16.6979C93.3366 16.6979 93.9836 16.59 94.5311 16.3744C95.0786 16.1587 95.5016 15.8269 95.8002 15.379C96.0988 14.9144 96.2482 14.3255 96.2482 13.6121C96.2482 12.9651 96.1154 12.4259 95.85 11.9946C95.5846 11.5632 95.2279 11.2148 94.7799 10.9494C94.332 10.6674 93.8177 10.4351 93.2371 10.2526C92.673 10.0535 92.0758 9.87105 91.4453 9.70515C90.7817 9.52266 90.1264 9.31528 89.4794 9.08302C88.8324 8.85076 88.2434 8.54384 87.7126 8.16227C87.1817 7.7807 86.7586 7.29959 86.4434 6.71893C86.1282 6.13828 85.9706 5.40832 85.9706 4.52904C85.9706 3.6 86.2029 2.80367 86.6674 2.14007C87.1485 1.45988 87.7789 0.93729 88.5587 0.572308C89.355 0.190736 90.226 -4.96927e-05 91.1716 -4.96927e-05C91.9181 -4.96927e-05 92.6232 0.107786 93.2868 0.323457C93.967 0.539128 94.5809 0.912405 95.1283 1.44329C95.6924 1.97417 96.1735 2.72902 96.5717 3.70783L95.6758 3.80737L96.0242 0.248801H97.4426V4.87743H95.8749C95.6094 4.16406 95.2528 3.55023 94.8048 3.03593C94.3735 2.52164 93.8675 2.13178 93.2868 1.86633C92.7062 1.5843 92.0758 1.44329 91.3956 1.44329C90.6988 1.44329 90.1015 1.55942 89.6038 1.79168C89.1061 2.02394 88.7163 2.35574 88.4342 2.78708C88.1688 3.20184 88.0361 3.70783 88.0361 4.30508C88.0361 4.88573 88.1688 5.36684 88.4342 5.74841C88.6997 6.11339 89.0564 6.42031 89.5043 6.66916C89.9522 6.91801 90.4665 7.13368 91.0472 7.31618C91.6278 7.48208 92.2251 7.64798 92.8389 7.81388C93.5357 7.99637 94.2159 8.21204 94.8795 8.46089C95.5431 8.69315 96.1403 9.00007 96.6712 9.38164C97.2187 9.76321 97.65 10.2526 97.9652 10.8499C98.2804 11.4471 98.438 12.1937 98.438 13.0895C98.438 14.1679 98.1726 15.0886 97.6417 15.8518C97.1274 16.6149 96.4306 17.1956 95.5514 17.5937C94.6887 17.9753 93.7348 18.1661 92.6896 18.1661C91.7439 18.1661 90.8315 18.0168 89.9522 17.7182C89.0895 17.4029 88.3181 16.9135 87.6379 16.2499C86.9743 15.5863 86.4517 14.7071 86.0701 13.6121L87.19 13.7365L86.8416 17.9172H85.3236V12.4176H86.8914C87.1734 13.2637 87.5881 14.0103 88.1356 14.6573C88.6831 15.3043 89.3384 15.8103 90.1015 16.1753C90.8647 16.5237 91.6942 16.6979 92.59 16.6979Z" fill="white"/>
</svg>
