<svg width="21" height="21" viewBox="0 0 21 21" fill="none" xmlns="http://www.w3.org/2000/svg">
<path d="M4.375 18.375H16.625C17.5915 18.375 18.375 17.5915 18.375 16.625V4.375C18.375 3.4085 17.5915 2.625 16.625 2.625H4.375C3.4085 2.625 2.625 3.4085 2.625 4.375V16.625C2.625 17.5915 3.4085 18.375 4.375 18.375ZM4.375 18.375L14 8.75L18.375 13.125M8.75 7.4375C8.75 8.16237 8.16237 8.75 7.4375 8.75C6.71263 8.75 6.125 8.16237 6.125 7.4375C6.125 6.71263 6.71263 6.125 7.4375 6.125C8.16237 6.125 8.75 6.71263 8.75 7.4375Z" stroke="#1E1E1E" stroke-width="1.75" stroke-linecap="round" stroke-linejoin="round"/>
</svg>
