<svg width="25" height="25" viewBox="0 0 25 25" fill="none" xmlns="http://www.w3.org/2000/svg">
<g clip-path="url(#clip0_254_96)">
<path d="M12.5003 15.625C14.2262 15.625 15.6253 14.2259 15.6253 12.5C15.6253 10.7741 14.2262 9.37499 12.5003 9.37499C10.7744 9.37499 9.37533 10.7741 9.37533 12.5C9.37533 14.2259 10.7744 15.625 12.5003 15.625Z" stroke="#1E1E1E" stroke-width="2.60417" stroke-linecap="round" stroke-linejoin="round"/>
<path d="M20.2087 15.625C20.07 15.9392 20.0286 16.2877 20.0899 16.6256C20.1512 16.9635 20.3123 17.2753 20.5524 17.5208L20.6149 17.5833C20.8086 17.7768 20.9623 18.0066 21.0671 18.2595C21.172 18.5124 21.2259 18.7835 21.2259 19.0573C21.2259 19.3311 21.172 19.6022 21.0671 19.8551C20.9623 20.108 20.8086 20.3378 20.6149 20.5312C20.4214 20.7249 20.1917 20.8786 19.9387 20.9834C19.6858 21.0883 19.4147 21.1423 19.1409 21.1423C18.8672 21.1423 18.5961 21.0883 18.3432 20.9834C18.0902 20.8786 17.8605 20.7249 17.667 20.5312L17.6045 20.4687C17.359 20.2286 17.0472 20.0675 16.7093 20.0062C16.3714 19.945 16.0228 19.9863 15.7087 20.125C15.4006 20.257 15.1378 20.4763 14.9527 20.7558C14.7676 21.0352 14.6683 21.3627 14.667 21.6979V21.875C14.667 22.4275 14.4475 22.9574 14.0568 23.3481C13.6661 23.7388 13.1362 23.9583 12.5837 23.9583C12.0311 23.9583 11.5012 23.7388 11.1105 23.3481C10.7198 22.9574 10.5003 22.4275 10.5003 21.875V21.7812C10.4923 21.4365 10.3807 21.1021 10.18 20.8216C9.97939 20.541 9.69901 20.3274 9.37533 20.2083C9.06114 20.0697 8.71262 20.0283 8.37471 20.0896C8.0368 20.1508 7.72499 20.3119 7.47949 20.5521L7.41699 20.6146C7.22351 20.8083 6.99374 20.9619 6.74083 21.0668C6.48791 21.1716 6.21682 21.2256 5.94303 21.2256C5.66925 21.2256 5.39815 21.1716 5.14524 21.0668C4.89233 20.9619 4.66256 20.8083 4.46908 20.6146C4.27537 20.4211 4.12171 20.1913 4.01687 19.9384C3.91203 19.6855 3.85806 19.4144 3.85806 19.1406C3.85806 18.8668 3.91203 18.5957 4.01687 18.3428C4.12171 18.0899 4.27537 17.8601 4.46908 17.6667L4.53158 17.6042C4.77172 17.3587 4.93281 17.0468 4.99408 16.7089C5.05535 16.371 5.01399 16.0225 4.87533 15.7083C4.74328 15.4002 4.52403 15.1375 4.24456 14.9524C3.96509 14.7673 3.6376 14.668 3.30241 14.6667H3.12533C2.57279 14.6667 2.04289 14.4472 1.65219 14.0565C1.26149 13.6658 1.04199 13.1359 1.04199 12.5833C1.04199 12.0308 1.26149 11.5009 1.65219 11.1102C2.04289 10.7195 2.57279 10.5 3.12533 10.5H3.21908C3.56386 10.4919 3.89825 10.3803 4.17876 10.1797C4.45928 9.97905 4.67295 9.69867 4.79199 9.37499C4.93065 9.06081 4.97202 8.71229 4.91075 8.37438C4.84948 8.03646 4.68838 7.72466 4.44824 7.47916L4.38574 7.41666C4.19204 7.22317 4.03838 6.9934 3.93353 6.74049C3.82869 6.48758 3.77473 6.21648 3.77473 5.9427C3.77473 5.66892 3.82869 5.39782 3.93353 5.14491C4.03838 4.89199 4.19204 4.66223 4.38574 4.46874C4.57923 4.27504 4.809 4.12137 5.06191 4.01653C5.31482 3.91169 5.58592 3.85773 5.8597 3.85773C6.13348 3.85773 6.40458 3.91169 6.65749 4.01653C6.91041 4.12137 7.14017 4.27504 7.33366 4.46874L7.39616 4.53124C7.64166 4.77138 7.95347 4.93247 8.29138 4.99374C8.62929 5.05501 8.97781 5.01365 9.29199 4.87499H9.37533C9.68342 4.74294 9.94618 4.52369 10.1313 4.24422C10.3163 3.96476 10.4157 3.63727 10.417 3.30207V3.12499C10.417 2.57246 10.6365 2.04255 11.0272 1.65185C11.4179 1.26115 11.9478 1.04166 12.5003 1.04166C13.0529 1.04166 13.5828 1.26115 13.9735 1.65185C14.3642 2.04255 14.5837 2.57246 14.5837 3.12499V3.21874C14.585 3.55393 14.6843 3.88142 14.8694 4.16089C15.0545 4.44036 15.3172 4.65961 15.6253 4.79166C15.9395 4.93032 16.288 4.97168 16.6259 4.91041C16.9638 4.84914 17.2757 4.68805 17.5212 4.44791L17.5837 4.38541C17.7771 4.19171 18.0069 4.03804 18.2598 3.9332C18.5127 3.82836 18.7838 3.77439 19.0576 3.77439C19.3314 3.77439 19.6025 3.82836 19.8554 3.9332C20.1083 4.03804 20.3381 4.19171 20.5316 4.38541C20.7253 4.57889 20.8789 4.80866 20.9838 5.06157C21.0886 5.31449 21.1426 5.58558 21.1426 5.85936C21.1426 6.13315 21.0886 6.40424 20.9838 6.65716C20.8789 6.91007 20.7253 7.13984 20.5316 7.33332L20.4691 7.39582C20.2289 7.64132 20.0678 7.95313 20.0066 8.29104C19.9453 8.62895 19.9867 8.97747 20.1253 9.29166V9.37499C20.2574 9.68308 20.4766 9.94584 20.7561 10.1309C21.0356 10.316 21.363 10.4153 21.6982 10.4167H21.8753C22.4279 10.4167 22.9578 10.6361 23.3485 11.0269C23.7392 11.4176 23.9587 11.9475 23.9587 12.5C23.9587 13.0525 23.7392 13.5824 23.3485 13.9731C22.9578 14.3638 22.4279 14.5833 21.8753 14.5833H21.7816C21.4464 14.5847 21.1189 14.684 20.8394 14.8691C20.56 15.0541 20.3407 15.3169 20.2087 15.625Z" stroke="#1E1E1E" stroke-width="2.60417" stroke-linecap="round" stroke-linejoin="round"/>
</g>
<defs>
<clipPath id="clip0_254_96">
<rect width="25" height="25" fill="white"/>
</clipPath>
</defs>
</svg>
